<svg width="27" height="34" viewBox="0 0 27 34" fill="none" xmlns="http://www.w3.org/2000/svg">
<path d="M9.384 0.735999C14.6 0.735999 18.776 1.92 21.912 4.288C25.08 6.624 26.664 10.928 26.664 17.2C26.664 23.376 25.128 27.728 22.056 30.256C18.984 32.752 15 34 10.104 34H0.12V0.735999H9.384ZM7.992 6.448V28.288H10.584C13.176 28.288 15.144 27.488 16.488 25.888C17.832 24.256 18.504 21.36 18.504 17.2C18.504 14.352 18.168 12.144 17.496 10.576C16.824 9.008 15.912 7.936 14.76 7.36C13.608 6.752 12.184 6.448 10.488 6.448H7.992Z" fill="#141414"/>
</svg>
