<svg width="258" height="50" viewBox="0 0 258 50" fill="none" xmlns="http://www.w3.org/2000/svg">
<path d="M9.384 5.736C14.6 5.736 18.776 6.92 21.912 9.288C25.08 11.624 26.664 15.928 26.664 22.2C26.664 28.376 25.128 32.728 22.056 35.256C18.984 37.752 15 39 10.104 39H0.12V5.736H9.384ZM7.992 11.448V33.288H10.584C13.176 33.288 15.144 32.488 16.488 30.888C17.832 29.256 18.504 26.36 18.504 22.2C18.504 19.352 18.168 17.144 17.496 15.576C16.824 14.008 15.912 12.936 14.76 12.36C13.608 11.752 12.184 11.448 10.488 11.448H7.992ZM51.0289 31.608C51.0289 32.568 51.1569 33.272 51.4129 33.72C51.7009 34.168 52.1489 34.504 52.7569 34.728L51.1729 39.672C49.6049 39.544 48.3249 39.208 47.3329 38.664C46.3409 38.088 45.5729 37.192 45.0289 35.976C43.3649 38.536 40.8049 39.816 37.3489 39.816C34.8209 39.816 32.8049 39.08 31.3009 37.608C29.7969 36.136 29.0449 34.216 29.0449 31.848C29.0449 29.064 30.0689 26.936 32.1169 25.464C34.1649 23.992 37.1249 23.256 40.9969 23.256H43.5889V22.152C43.5889 20.648 43.2689 19.624 42.6289 19.08C41.9889 18.504 40.8689 18.216 39.2689 18.216C38.4369 18.216 37.4289 18.344 36.2449 18.6C35.0609 18.824 33.8449 19.144 32.5969 19.56L30.8689 14.568C32.4689 13.96 34.1009 13.496 35.7649 13.176C37.4609 12.856 39.0289 12.696 40.4689 12.696C44.1169 12.696 46.7889 13.448 48.4849 14.952C50.1809 16.456 51.0289 18.712 51.0289 21.72V31.608ZM39.5569 34.392C41.2849 34.392 42.6289 33.576 43.5889 31.944V27.432H41.7169C39.9889 27.432 38.6929 27.736 37.8289 28.344C36.9969 28.952 36.5809 29.896 36.5809 31.176C36.5809 32.2 36.8369 33 37.3489 33.576C37.8929 34.12 38.6289 34.392 39.5569 34.392ZM70.8938 12.792C71.8218 12.792 72.6698 12.904 73.4378 13.128L72.2378 20.472C71.2778 20.248 70.5098 20.136 69.9338 20.136C68.4298 20.136 67.2778 20.664 66.4778 21.72C65.7098 22.744 65.1018 24.296 64.6538 26.376V39H57.0698V13.512H63.6938L64.3178 18.456C64.8938 16.696 65.7578 15.32 66.9098 14.328C68.0938 13.304 69.4218 12.792 70.8938 12.792ZM83.9194 2.568V39H76.3354V3.384L83.9194 2.568ZM99.6634 13.512L91.9354 24.696L100.287 39H91.7434L84.1594 25.08L91.9354 13.512H99.6634ZM123.618 5.736C128.834 5.736 133.01 6.92 136.146 9.288C139.314 11.624 140.898 15.928 140.898 22.2C140.898 28.376 139.362 32.728 136.29 35.256C133.218 37.752 129.234 39 124.338 39H114.354V5.736H123.618ZM122.226 11.448V33.288H124.818C127.41 33.288 129.378 32.488 130.722 30.888C132.066 29.256 132.738 26.36 132.738 22.2C132.738 19.352 132.402 17.144 131.73 15.576C131.058 14.008 130.146 12.936 128.994 12.36C127.842 11.752 126.418 11.448 124.722 11.448H122.226ZM167.7 25.752C167.7 26.808 167.652 27.72 167.556 28.488H151.764C152.02 30.632 152.628 32.136 153.588 33C154.548 33.864 155.876 34.296 157.572 34.296C158.596 34.296 159.588 34.12 160.548 33.768C161.508 33.384 162.548 32.808 163.668 32.04L166.788 36.264C163.812 38.632 160.5 39.816 156.852 39.816C152.724 39.816 149.556 38.6 147.348 36.168C145.14 33.736 144.036 30.472 144.036 26.376C144.036 23.784 144.5 21.464 145.428 19.416C146.356 17.336 147.716 15.704 149.508 14.52C151.3 13.304 153.444 12.696 155.94 12.696C159.62 12.696 162.5 13.848 164.58 16.152C166.66 18.456 167.7 21.656 167.7 25.752ZM160.26 23.592C160.196 19.688 158.82 17.736 156.132 17.736C154.82 17.736 153.796 18.216 153.06 19.176C152.356 20.136 151.924 21.72 151.764 23.928H160.26V23.592ZM180.936 12.696C182.76 12.696 184.472 12.968 186.072 13.512C187.672 14.056 189.08 14.824 190.296 15.816L187.512 20.088C185.432 18.776 183.336 18.12 181.224 18.12C180.232 18.12 179.464 18.296 178.92 18.648C178.408 18.968 178.152 19.432 178.152 20.04C178.152 20.52 178.264 20.92 178.488 21.24C178.744 21.528 179.24 21.832 179.976 22.152C180.712 22.472 181.848 22.856 183.384 23.304C186.04 24.072 188.008 25.08 189.288 26.328C190.6 27.544 191.256 29.24 191.256 31.416C191.256 33.144 190.76 34.648 189.768 35.928C188.776 37.176 187.416 38.136 185.688 38.808C183.96 39.48 182.04 39.816 179.928 39.816C177.784 39.816 175.784 39.48 173.928 38.808C172.104 38.136 170.552 37.208 169.272 36.024L172.968 31.896C175.112 33.56 177.368 34.392 179.736 34.392C180.888 34.392 181.784 34.184 182.424 33.768C183.096 33.352 183.432 32.76 183.432 31.992C183.432 31.384 183.304 30.904 183.048 30.552C182.792 30.2 182.296 29.88 181.56 29.592C180.824 29.272 179.656 28.888 178.056 28.44C175.528 27.704 173.64 26.68 172.392 25.368C171.144 24.056 170.52 22.424 170.52 20.472C170.52 19 170.936 17.688 171.768 16.536C172.632 15.352 173.848 14.424 175.416 13.752C177.016 13.048 178.856 12.696 180.936 12.696ZM202.748 13.512V39H195.164V13.512H202.748ZM198.908 0.0719976C200.22 0.0719976 201.292 0.487998 202.124 1.32C202.988 2.12 203.42 3.144 203.42 4.392C203.42 5.64 202.988 6.68 202.124 7.512C201.292 8.312 200.22 8.712 198.908 8.712C197.596 8.712 196.524 8.312 195.692 7.512C194.86 6.68 194.444 5.64 194.444 4.392C194.444 3.144 194.86 2.12 195.692 1.32C196.524 0.487998 197.596 0.0719976 198.908 0.0719976ZM232.182 15C230.518 15.672 228.07 16.008 224.838 16.008C226.502 16.712 227.718 17.576 228.486 18.6C229.254 19.624 229.638 20.952 229.638 22.584C229.638 24.216 229.206 25.688 228.342 27C227.478 28.28 226.23 29.288 224.598 30.024C222.998 30.76 221.11 31.128 218.934 31.128C217.91 31.128 216.934 31.032 216.006 30.84C215.75 30.968 215.542 31.176 215.382 31.464C215.254 31.72 215.19 31.992 215.19 32.28C215.19 32.76 215.366 33.144 215.718 33.432C216.102 33.688 216.854 33.816 217.974 33.816H221.814C223.766 33.816 225.478 34.136 226.95 34.776C228.422 35.416 229.558 36.296 230.358 37.416C231.158 38.536 231.558 39.8 231.558 41.208C231.558 43.864 230.406 45.928 228.102 47.4C225.83 48.904 222.534 49.656 218.214 49.656C215.11 49.656 212.662 49.32 210.87 48.648C209.078 48.008 207.814 47.096 207.078 45.912C206.374 44.728 206.022 43.24 206.022 41.448H212.838C212.838 42.216 212.982 42.824 213.27 43.272C213.59 43.72 214.15 44.056 214.95 44.28C215.75 44.504 216.902 44.616 218.406 44.616C220.486 44.616 221.926 44.36 222.726 43.848C223.526 43.368 223.926 42.664 223.926 41.736C223.926 40.968 223.622 40.36 223.014 39.912C222.406 39.464 221.494 39.24 220.278 39.24H216.582C213.958 39.24 211.99 38.776 210.678 37.848C209.398 36.888 208.758 35.672 208.758 34.2C208.758 33.272 209.03 32.376 209.574 31.512C210.118 30.616 210.854 29.88 211.782 29.304C210.182 28.44 209.014 27.432 208.278 26.28C207.574 25.096 207.222 23.672 207.222 22.008C207.222 19.16 208.246 16.904 210.294 15.24C212.342 13.544 215.046 12.696 218.406 12.696C220.966 12.76 223.126 12.504 224.886 11.928C226.678 11.352 228.518 10.504 230.406 9.384L232.182 15ZM218.598 17.688C217.414 17.688 216.47 18.072 215.766 18.84C215.094 19.576 214.758 20.6 214.758 21.912C214.758 23.288 215.094 24.36 215.766 25.128C216.47 25.864 217.414 26.232 218.598 26.232C219.846 26.232 220.79 25.864 221.43 25.128C222.102 24.392 222.438 23.288 222.438 21.816C222.438 19.064 221.158 17.688 218.598 17.688ZM250.076 12.696C252.284 12.696 254.012 13.368 255.26 14.712C256.508 16.056 257.132 17.944 257.132 20.376V39H249.548V21.672C249.548 20.392 249.34 19.512 248.924 19.032C248.54 18.52 247.948 18.264 247.148 18.264C245.612 18.264 244.14 19.368 242.732 21.576V39H235.148V13.512H241.772L242.3 16.536C243.388 15.256 244.556 14.296 245.804 13.656C247.084 13.016 248.508 12.696 250.076 12.696Z" fill="#141414"/>
</svg>
